<svg xmlns="http://www.w3.org/2000/svg" width="62" height="16"><path fill="#FFF" d="M12.306 0a1.87 1.87 0 0 1 1.865 1.872V12.35a1.87 1.87 0 0 1-1.865 1.872H1.866A1.87 1.87 0 0 1 0 12.35V1.867C0 .837.834 0 1.866 0h10.44zM7.25 3.593a4.012 4.012 0 0 0-4.003 4.02 4.008 4.008 0 0 0 4.003 4.017 4.012 4.012 0 0 0 4.003-4.02A4.006 4.006 0 0 0 7.25 3.592zm0 1.191a2.827 2.827 0 0 1 2.82 2.83c0 1.561-1.26 2.83-2.82 2.83a2.827 2.827 0 0 1-2.82-2.83 2.827 2.827 0 0 1 2.82-2.83zm.087.496c-.043 0-.086.035-.086.083L7.249 7.47c0 .06.064.103.12.074l1.867-.97c.042-.021.055-.074.033-.116A2.32 2.32 0 0 0 7.336 5.28zM3.521 3.568l-.292.293a.615.615 0 0 0 0 .87l.24.243c.04.04.095.03.13-.008a4.484 4.484 0 0 1 1.023-1.028c.043-.026.047-.087.013-.125l-.246-.245a.61.61 0 0 0-.868 0zM7.945 2.07H6.513a.617.617 0 0 0-.614.617v.5c0 .056.052.096.107.082a4.5 4.5 0 0 1 2.451-.012.084.084 0 0 0 .104-.081l-.001-.489a.616.616 0 0 0-.615-.617zm29.073 9.64c0 1.294-.33 2.238-.995 2.838-.664.6-1.68.9-3.047.9-.5 0-1.538-.097-2.368-.28l.305-1.502c.695.146 1.612.185 2.092.185.762 0 1.306-.155 1.63-.465.326-.311.485-.77.485-1.38v-.31a5.712 5.712 0 0 1-.742.28c-.305.092-.66.141-1.057.141-.523 0-1-.082-1.432-.247a2.99 2.99 0 0 1-1.11-.726 3.3 3.3 0 0 1-.718-1.202c-.17-.48-.257-1.336-.257-1.966 0-.59.092-1.33.271-1.824.185-.494.447-.92.801-1.274a3.67 3.67 0 0 1 1.275-.824 4.688 4.688 0 0 1 1.723-.324c.616 0 1.183.078 1.736.169.554.093 1.024.19 1.408.296v7.516zm-5.274-3.738c0 .794.174 1.675.524 2.044.35.367.8.551 1.354.551.3 0 .587-.044.854-.124.265-.084.48-.18.65-.297V5.444a7.53 7.53 0 0 0-1.252-.16c-.689-.018-1.213.262-1.582.71-.363.452-.549 1.242-.549 1.978h.001zm14.278 0c0 .64-.092 1.123-.281 1.651a3.897 3.897 0 0 1-.8 1.351 3.534 3.534 0 0 1-1.242.867c-.485.203-1.233.32-1.605.32-.374-.006-1.116-.113-1.596-.32a3.626 3.626 0 0 1-1.238-.868 3.993 3.993 0 0 1-.806-1.35 4.477 4.477 0 0 1-.29-1.652c0-.64.086-1.254.281-1.778.195-.523.465-.969.815-1.342a3.646 3.646 0 0 1 1.242-.86c.48-.205 1.01-.301 1.582-.301.573 0 1.102.101 1.587.3.485.203.903.49 1.242.862.345.374.61.818.806 1.343.204.521.304 1.137.304 1.776h-.001zm-1.94.004c0-.818-.18-1.5-.53-1.973-.349-.48-.838-.719-1.465-.719-.625 0-1.116.238-1.465.718-.349.478-.519 1.155-.519 1.973 0 .83.175 1.387.523 1.867.35.483.841.72 1.467.72.625 0 1.116-.242 1.465-.72.349-.486.522-1.038.522-1.867l.002.001zm6.165 4.187c-3.11.013-3.11-2.51-3.11-2.912L47.134.3 49.03 0v8.89c0 .23 0 1.672 1.218 1.677v1.596zm3.343 0h-1.906V3.984l1.907-.3v8.479zm-.956-9.372c.637 0 1.155-.514 1.155-1.148 0-.634-.513-1.147-1.155-1.147-.64 0-1.154.513-1.154 1.147S52 2.79 52.635 2.79h-.001zm5.696.9c.626 0 1.155.078 1.582.232.428.156.77.373 1.024.649.253.277.432.655.539 1.052.111.396.165.833.165 1.312v4.871c-.29.064-.732.137-1.324.224-.591.087-1.256.13-1.993.13-.49 0-.942-.049-1.344-.141a2.833 2.833 0 0 1-1.043-.45 2.174 2.174 0 0 1-.675-.804c-.16-.329-.243-.794-.243-1.28 0-.464.092-.759.27-1.079.187-.32.433-.58.745-.784a3.163 3.163 0 0 1 1.085-.435 6.131 6.131 0 0 1 2.688.038v-.311c0-.217-.024-.425-.078-.619a1.335 1.335 0 0 0-.27-.517 1.263 1.263 0 0 0-.515-.349 2.25 2.25 0 0 0-.81-.146c-.438 0-.835.054-1.2.116a5.662 5.662 0 0 0-.892.219l-.229-1.556a7.85 7.85 0 0 1 1.048-.245 8.239 8.239 0 0 1 1.47-.126zm.16 6.872c.583 0 1.014-.033 1.315-.092V8.544a3.627 3.627 0 0 0-.456-.093 4.605 4.605 0 0 0-.66-.048 4.07 4.07 0 0 0-.635.049c-.212.029-.407.087-.577.168-.169.084-.31.2-.412.35-.106.15-.155.237-.155.465 0 .447.155.702.436.873.287.174.665.257 1.146.257l-.002-.002zM21.029 3.74c.626 0 1.155.078 1.582.232.426.155.77.374 1.023.65.257.28.432.653.539 1.05.112.397.165.833.165 1.313v4.871c-.293.062-.733.136-1.324.222-.594.09-1.258.132-1.996.132-.49 0-.94-.048-1.344-.14a2.833 2.833 0 0 1-1.043-.45 2.183 2.183 0 0 1-.673-.806c-.161-.329-.244-.794-.244-1.278 0-.465.092-.76.272-1.08.184-.32.432-.58.742-.784a3.165 3.165 0 0 1 1.087-.436 6.222 6.222 0 0 1 1.95-.091c.228.025.476.068.737.131v-.31c0-.218-.023-.427-.077-.62a1.324 1.324 0 0 0-.272-.518 1.28 1.28 0 0 0-.515-.349 2.25 2.25 0 0 0-.81-.145c-.436 0-.834.054-1.198.116a5.345 5.345 0 0 0-.892.218l-.228-1.555c.239-.082.593-.164 1.048-.246a7.821 7.821 0 0 1 1.469-.127h.002zm.164 6.877c.583 0 1.015-.033 1.316-.092V8.597a3.683 3.683 0 0 0-.457-.093 4.615 4.615 0 0 0-.66-.048c-.21 0-.423.015-.638.049a1.92 1.92 0 0 0-.576.169c-.17.083-.31.199-.412.35-.107.15-.155.236-.155.464 0 .447.154.702.435.873.281.169.665.258 1.145.258l.002-.002zm7.69 1.547c-3.109.013-3.109-2.51-3.109-2.912L25.767.3l1.896-.3v8.89c0 .23 0 1.672 1.218 1.677v1.594l.002.003z"/></svg>