<svg width="388" height="96" viewBox="0 0 388 96" xmlns="http://www.w3.org/2000/svg"><title>logo/algolia/mono-white</title><desc>Created with Sketch.</desc><path d="M12.646 0h70.747c6.964 0 12.646 5.652 12.646 12.645v70.771c0 6.963-5.653 12.645-12.646 12.645h-70.747c-6.964 0-12.646-5.652-12.646-12.645v-70.8c0-6.963 5.653-12.616 12.646-12.616zm36.481 24.27c-14.977 0-27.127 12.15-27.127 27.155s12.15 27.125 27.127 27.125c14.977 0 27.127-12.15 27.127-27.155s-12.121-27.125-27.127-27.125zm0 46.268c-10.548 0-19.114-8.566-19.114-19.113 0-10.547 8.567-19.113 19.114-19.113 10.548 0 19.114 8.566 19.114 19.113 0 10.547-8.537 19.113-19.114 19.113zm0-34.322v14.247c0 .408.437.699.816.495l12.646-6.556c.291-.146.379-.495.233-.787-2.622-4.603-7.488-7.75-13.112-7.954-.291 0-.583.233-.583.554zm-17.716-10.46l-1.661-1.661c-1.632-1.632-4.254-1.632-5.886 0l-1.981 1.981c-1.632 1.632-1.632 4.254 0 5.885l1.632 1.632c.262.262.641.204.874-.058.962-1.311 2.011-2.564 3.176-3.729 1.195-1.195 2.418-2.243 3.759-3.205.291-.175.321-.583.087-.845zm26.603-4.312v-3.292c0-2.302-1.865-4.166-4.167-4.166h-9.703c-2.302 0-4.167 1.865-4.167 4.166v3.38c0 .379.35.641.728.554 2.71-.787 5.565-1.195 8.45-1.195 2.768 0 5.507.379 8.159 1.107.35.087.699-.175.699-.554zm182.112 52.036c0 7.779-1.981 13.461-5.973 17.074-3.992 3.613-10.082 5.419-18.299 5.419-3.001 0-9.237-.583-14.219-1.69l1.836-9.032c4.167.874 9.674 1.107 12.558 1.107 4.575 0 7.838-.932 9.79-2.797 1.952-1.865 2.914-4.633 2.914-8.304v-1.865c-1.136.554-2.622 1.107-4.458 1.69-1.836.554-3.963.845-6.352.845-3.147 0-6.002-.495-8.596-1.486-2.593-.991-4.837-2.447-6.673-4.37-1.836-1.923-3.293-4.341-4.312-7.226-1.02-2.884-1.544-8.041-1.544-11.829 0-3.555.554-8.012 1.632-10.984 1.107-2.972 2.681-5.536 4.808-7.663 2.098-2.127 4.662-3.759 7.663-4.953 3.001-1.195 6.527-1.952 10.344-1.952 3.701 0 7.11.466 10.431 1.02 3.322.554 6.148 1.136 8.45 1.777v45.219zm54.08-22.493c0 3.846-.554 6.759-1.69 9.935s-2.739 5.885-4.808 8.129c-2.069 2.243-4.546 3.992-7.459 5.215-2.914 1.224-7.401 1.923-9.645 1.923-2.244-.029-6.702-.67-9.586-1.923-2.885-1.253-5.361-2.972-7.43-5.215s-3.671-4.953-4.837-8.129c-1.166-3.176-1.748-6.089-1.748-9.935s.524-7.546 1.69-10.693c1.166-3.147 2.797-5.827 4.895-8.071 2.098-2.243 4.604-3.962 7.459-5.186 2.885-1.224 6.061-1.806 9.499-1.806 3.438 0 6.614.612 9.528 1.806 2.914 1.224 5.42 2.943 7.459 5.186 2.069 2.243 3.671 4.924 4.837 8.071 1.224 3.147 1.836 6.847 1.836 10.693zm25.379 25.202c-18.677.087-18.677-15.092-18.677-17.511l-.029-53.843 11.393-1.806v53.493c0 1.369 0 10.052 7.314 10.081v9.586zm20.076 0h-11.451v-49.181l11.451-1.806v50.988zm-5.74-56.378c3.817 0 6.935-3.088 6.935-6.905s-3.089-6.905-6.935-6.905c-3.846 0-6.935 3.088-6.935 6.905s3.118 6.905 6.935 6.905zm34.208 5.419c3.759 0 6.935.466 9.499 1.399 2.564.932 4.633 2.243 6.148 3.904 1.515 1.661 2.593 3.933 3.234 6.322.67 2.389.991 5.011.991 7.896v29.311c-1.748.379-4.4.816-7.955 1.34-3.555.524-7.547.787-11.976.787-2.943 0-5.653-.291-8.071-.845-2.448-.554-4.516-1.457-6.265-2.71-1.719-1.253-3.059-2.855-4.05-4.837-.962-1.981-1.457-4.778-1.457-7.692 0-2.797.554-4.574 1.632-6.497 1.107-1.923 2.593-3.496 4.458-4.72 1.894-1.224 4.05-2.098 6.527-2.622 2.477-.524 5.07-.787 7.751-.787 1.253 0 2.564.087 3.963.233 1.399.146 2.856.408 4.429.787v-1.865c0-1.311-.146-2.564-.466-3.729-.321-1.195-.874-2.214-1.632-3.118-.787-.903-1.807-1.602-3.089-2.098-1.282-.495-2.914-.874-4.866-.874-2.622 0-5.012.32-7.197.699-2.185.379-3.992.816-5.361 1.311l-1.369-9.353c1.428-.495 3.555-.991 6.294-1.486 2.739-.495 5.682-.758 8.829-.758zm-224.041.291c3.759 0 6.935.466 9.499 1.399 2.564.932 4.633 2.243 6.148 3.904 1.544 1.69 2.593 3.933 3.234 6.322.67 2.389.991 5.011.991 7.896v29.311c-1.748.379-4.4.816-7.955 1.34-3.555.524-7.547.787-11.976.787-2.943 0-5.653-.291-8.071-.845-2.448-.554-4.516-1.457-6.265-2.71-1.719-1.253-3.059-2.855-4.05-4.837-.962-1.981-1.457-4.778-1.457-7.692 0-2.797.554-4.574 1.632-6.497 1.107-1.923 2.593-3.496 4.458-4.72 1.894-1.224 4.05-2.098 6.527-2.622 2.477-.524 5.07-.787 7.751-.787 1.253 0 2.564.087 3.963.233 1.369.146 2.856.408 4.429.787v-1.865c0-1.311-.146-2.564-.466-3.729-.321-1.195-.874-2.214-1.632-3.118-.787-.903-1.807-1.602-3.089-2.098-1.282-.495-2.914-.874-4.866-.874-2.622 0-5.012.32-7.197.699-2.185.379-3.992.816-5.361 1.311l-1.369-9.353c1.428-.495 3.555-.991 6.294-1.486 2.739-.524 5.682-.758 8.829-.758zm47.174 50.667c-18.677.087-18.677-15.092-18.677-17.511l-.029-53.843 11.393-1.806v53.493c0 1.369 0 10.052 7.314 10.081v9.586zm177.828-9.615c3.497 0 6.09-.204 7.896-.554v-11.596c-.641-.175-1.544-.379-2.739-.554-1.195-.175-2.506-.291-3.963-.291-1.253 0-2.535.087-3.817.291-1.282.175-2.448.524-3.467 1.02-1.02.495-1.865 1.195-2.477 2.098-.641.903-.932 1.428-.932 2.797 0 2.68.932 4.225 2.622 5.244 1.719 1.049 3.992 1.544 6.877 1.544zm-86.54-15.558c0-4.924-1.078-9.032-3.176-11.887-2.098-2.884-5.041-4.312-8.8-4.312-3.759 0-6.702 1.428-8.8 4.312-2.098 2.884-3.118 6.963-3.118 11.887 0 4.982 1.049 8.333 3.147 11.217 2.098 2.914 5.041 4.341 8.8 4.341 3.759 0 6.702-1.457 8.8-4.341 2.098-2.914 3.147-6.235 3.147-11.217zm-74.098-.029c0 4.778 1.049 10.081 3.147 12.295 2.098 2.214 4.808 3.321 8.129 3.321 1.807 0 3.526-.262 5.128-.758 1.603-.495 2.885-1.078 3.904-1.777v-28.291c-.816-.175-4.225-.874-7.518-.961-4.138-.117-7.284 1.573-9.499 4.283-2.185 2.71-3.293 7.459-3.293 11.887zm-63.375 15.908c3.497 0 6.09-.204 7.896-.554v-11.596c-.641-.175-1.544-.379-2.739-.554-1.195-.175-2.506-.291-3.963-.291-1.253 0-2.535.087-3.817.291-1.282.175-2.448.524-3.467 1.02-1.02.495-1.865 1.195-2.477 2.098-.641.903-.932 1.428-.932 2.797 0 2.68.932 4.225 2.622 5.244 1.69 1.02 3.992 1.544 6.877 1.544z" fill="#fff"/></svg>